{
	"patcher" : 	{
		"fileversion" : 1,
		"appversion" : 		{
			"major" : 8,
			"minor" : 5,
			"revision" : 4,
			"architecture" : "x64",
			"modernui" : 1
		}
,
		"classnamespace" : "box",
		"rect" : [ 34.0, 100.0, 1444.0, 848.0 ],
		"bglocked" : 0,
		"openinpresentation" : 0,
		"default_fontsize" : 12.0,
		"default_fontface" : 0,
		"default_fontname" : "Arial",
		"gridonopen" : 1,
		"gridsize" : [ 15.0, 15.0 ],
		"gridsnaponopen" : 1,
		"objectsnaponopen" : 1,
		"statusbarvisible" : 2,
		"toolbarvisible" : 1,
		"lefttoolbarpinned" : 0,
		"toptoolbarpinned" : 0,
		"righttoolbarpinned" : 0,
		"bottomtoolbarpinned" : 0,
		"toolbars_unpinned_last_save" : 0,
		"tallnewobj" : 0,
		"boxanimatetime" : 200,
		"enablehscroll" : 1,
		"enablevscroll" : 1,
		"devicewidth" : 0.0,
		"description" : "",
		"digest" : "",
		"tags" : "",
		"style" : "",
		"subpatcher_template" : "clean_template",
		"assistshowspatchername" : 0,
		"boxes" : [ 			{
				"box" : 				{
					"id" : "obj-50",
					"maxclass" : "comment",
					"numinlets" : 1,
					"numoutlets" : 0,
					"patching_rect" : [ 678.5, 8.5, 150.0, 20.0 ],
					"text" : "Load 4 samples here -->"
				}

			}
, 			{
				"box" : 				{
					"id" : "obj-48",
					"maxclass" : "newobj",
					"numinlets" : 2,
					"numoutlets" : 1,
					"outlettype" : [ "signal" ],
					"patching_rect" : [ 831.0, 595.0, 70.0, 22.0 ],
					"text" : "cycle~ 0.05"
				}

			}
, 			{
				"box" : 				{
					"id" : "obj-46",
					"maxclass" : "newobj",
					"numinlets" : 6,
					"numoutlets" : 1,
					"outlettype" : [ "signal" ],
					"patching_rect" : [ 724.0, 595.0, 101.0, 22.0 ],
					"text" : "scale~ -1. 1. 0. 2."
				}

			}
, 			{
				"box" : 				{
					"id" : "obj-45",
					"maxclass" : "newobj",
					"numinlets" : 2,
					"numoutlets" : 1,
					"outlettype" : [ "signal" ],
					"patching_rect" : [ 724.0, 561.0, 70.0, 22.0 ],
					"text" : "cycle~ 0.01"
				}

			}
, 			{
				"box" : 				{
					"id" : "obj-41",
					"maxclass" : "live.scope~",
					"numinlets" : 2,
					"numoutlets" : 1,
					"outlettype" : [ "bang" ],
					"patching_rect" : [ 1006.0, 736.0, 184.0, 68.0 ],
					"range" : [ 0.0, 2.0 ]
				}

			}
, 			{
				"box" : 				{
					"id" : "obj-42",
					"maxclass" : "live.scope~",
					"numinlets" : 2,
					"numoutlets" : 1,
					"outlettype" : [ "bang" ],
					"patching_rect" : [ 1006.0, 665.0, 184.0, 68.0 ],
					"range" : [ 0.0, 2.0 ]
				}

			}
, 			{
				"box" : 				{
					"id" : "obj-43",
					"maxclass" : "live.scope~",
					"numinlets" : 2,
					"numoutlets" : 1,
					"outlettype" : [ "bang" ],
					"patching_rect" : [ 1006.0, 595.0, 184.0, 68.0 ],
					"range" : [ 0.0, 2.0 ]
				}

			}
, 			{
				"box" : 				{
					"id" : "obj-44",
					"maxclass" : "live.scope~",
					"numinlets" : 2,
					"numoutlets" : 1,
					"outlettype" : [ "bang" ],
					"patching_rect" : [ 1006.0, 524.0, 184.0, 68.0 ],
					"range" : [ 0.0, 2.0 ]
				}

			}
, 			{
				"box" : 				{
					"id" : "obj-40",
					"maxclass" : "live.scope~",
					"numinlets" : 2,
					"numoutlets" : 1,
					"outlettype" : [ "bang" ],
					"patching_rect" : [ 1006.0, 454.0, 184.0, 68.0 ],
					"range" : [ 0.0, 2.0 ]
				}

			}
, 			{
				"box" : 				{
					"id" : "obj-39",
					"maxclass" : "live.scope~",
					"numinlets" : 2,
					"numoutlets" : 1,
					"outlettype" : [ "bang" ],
					"patching_rect" : [ 1006.0, 383.0, 184.0, 68.0 ],
					"range" : [ 0.0, 2.0 ]
				}

			}
, 			{
				"box" : 				{
					"id" : "obj-38",
					"maxclass" : "live.scope~",
					"numinlets" : 2,
					"numoutlets" : 1,
					"outlettype" : [ "bang" ],
					"patching_rect" : [ 1006.0, 313.0, 184.0, 68.0 ],
					"range" : [ 0.0, 2.0 ]
				}

			}
, 			{
				"box" : 				{
					"id" : "obj-37",
					"maxclass" : "newobj",
					"numinlets" : 1,
					"numoutlets" : 8,
					"outlettype" : [ "signal", "signal", "signal", "signal", "signal", "signal", "signal", "signal" ],
					"patching_rect" : [ 1006.0, 168.0, 92.5, 22.0 ],
					"text" : "mc.unpack~ 8"
				}

			}
, 			{
				"box" : 				{
					"id" : "obj-36",
					"maxclass" : "live.scope~",
					"numinlets" : 2,
					"numoutlets" : 1,
					"outlettype" : [ "bang" ],
					"patching_rect" : [ 1006.0, 242.0, 184.0, 68.0 ],
					"range" : [ 0.0, 2.0 ]
				}

			}
, 			{
				"box" : 				{
					"id" : "obj-32",
					"maxclass" : "newobj",
					"numinlets" : 1,
					"numoutlets" : 0,
					"patching_rect" : [ 67.0, 535.0, 74.0, 22.0 ],
					"text" : "mc.dac~ 1 2"
				}

			}
, 			{
				"box" : 				{
					"id" : "obj-31",
					"maxclass" : "newobj",
					"numinlets" : 2,
					"numoutlets" : 1,
					"outlettype" : [ "multichannelsignal" ],
					"patching_rect" : [ 67.0, 463.0, 87.0, 22.0 ],
					"text" : "mc.interleave~"
				}

			}
, 			{
				"box" : 				{
					"id" : "obj-30",
					"maxclass" : "newobj",
					"numinlets" : 2,
					"numoutlets" : 1,
					"outlettype" : [ "multichannelsignal" ],
					"patching_rect" : [ 173.5, 418.0, 40.0, 22.0 ],
					"text" : "mc.*~"
				}

			}
, 			{
				"box" : 				{
					"id" : "obj-29",
					"maxclass" : "newobj",
					"numinlets" : 2,
					"numoutlets" : 1,
					"outlettype" : [ "multichannelsignal" ],
					"patching_rect" : [ 67.0, 499.0, 140.0, 22.0 ],
					"text" : "mc.stereo~ @autogain 1"
				}

			}
, 			{
				"box" : 				{
					"id" : "obj-28",
					"maxclass" : "newobj",
					"numinlets" : 2,
					"numoutlets" : 1,
					"outlettype" : [ "multichannelsignal" ],
					"patching_rect" : [ 150.0, 307.0, 181.0, 22.0 ],
					"text" : "mc.*~ 1. @chans 8 @replicate 1"
				}

			}
, 			{
				"box" : 				{
					"id" : "obj-27",
					"maxclass" : "newobj",
					"numinlets" : 1,
					"numoutlets" : 1,
					"outlettype" : [ "multichannelsignal" ],
					"patching_rect" : [ 150.0, 273.0, 83.0, 22.0 ],
					"text" : "mc.list~ 1. 0.5"
				}

			}
, 			{
				"box" : 				{
					"id" : "obj-26",
					"maxclass" : "newobj",
					"numinlets" : 2,
					"numoutlets" : 1,
					"outlettype" : [ "int" ],
					"patching_rect" : [ 219.0, 209.0, 29.5, 22.0 ],
					"text" : "+ 1"
				}

			}
, 			{
				"box" : 				{
					"id" : "obj-25",
					"maxclass" : "newobj",
					"numinlets" : 2,
					"numoutlets" : 1,
					"outlettype" : [ "int" ],
					"patching_rect" : [ 219.0, 151.0, 29.5, 22.0 ],
					"text" : "- 1"
				}

			}
, 			{
				"box" : 				{
					"id" : "obj-24",
					"maxclass" : "newobj",
					"numinlets" : 2,
					"numoutlets" : 1,
					"outlettype" : [ "int" ],
					"patching_rect" : [ 219.0, 180.0, 29.5, 22.0 ],
					"text" : "% 4"
				}

			}
, 			{
				"box" : 				{
					"id" : "obj-20",
					"maxclass" : "newobj",
					"numinlets" : 2,
					"numoutlets" : 1,
					"outlettype" : [ "multichannelsignal" ],
					"patching_rect" : [ 67.0, 418.0, 40.0, 22.0 ],
					"text" : "mc.*~"
				}

			}
, 			{
				"box" : 				{
					"id" : "obj-19",
					"maxclass" : "newobj",
					"numinlets" : 1,
					"numoutlets" : 2,
					"outlettype" : [ "int", "int" ],
					"patching_rect" : [ 219.0, 113.5, 29.5, 22.0 ],
					"text" : "t i i"
				}

			}
, 			{
				"box" : 				{
					"id" : "obj-18",
					"maxclass" : "newobj",
					"numinlets" : 2,
					"numoutlets" : 2,
					"outlettype" : [ "setvalue", "int" ],
					"patching_rect" : [ 67.0, 307.0, 59.0, 22.0 ],
					"text" : "mc.target"
				}

			}
, 			{
				"box" : 				{
					"id" : "obj-15",
					"maxclass" : "newobj",
					"numinlets" : 1,
					"numoutlets" : 1,
					"outlettype" : [ "" ],
					"patching_rect" : [ 67.0, 273.0, 72.0, 22.0 ],
					"text" : "prepend set"
				}

			}
, 			{
				"box" : 				{
					"id" : "obj-13",
					"maxclass" : "newobj",
					"numinlets" : 3,
					"numoutlets" : 2,
					"outlettype" : [ "", "" ],
					"patching_rect" : [ 67.0, 238.0, 171.0, 22.0 ],
					"text" : "combine smpls . 1 @triggers 2"
				}

			}
, 			{
				"box" : 				{
					"id" : "obj-12",
					"maxclass" : "newobj",
					"numinlets" : 2,
					"numoutlets" : 3,
					"outlettype" : [ "bang", "bang", "int" ],
					"patching_rect" : [ 198.0, 84.5, 40.0, 22.0 ],
					"text" : "uzi 8"
				}

			}
, 			{
				"box" : 				{
					"id" : "obj-11",
					"maxclass" : "newobj",
					"numinlets" : 1,
					"numoutlets" : 1,
					"outlettype" : [ "bang" ],
					"patching_rect" : [ 198.0, 53.5, 58.0, 22.0 ],
					"text" : "loadbang"
				}

			}
, 			{
				"box" : 				{
					"id" : "obj-5",
					"maxclass" : "newobj",
					"numinlets" : 3,
					"numoutlets" : 3,
					"outlettype" : [ "multichannelsignal", "multichannelsignal", "multichannelsignal" ],
					"patching_rect" : [ 67.0, 344.0, 232.0, 22.0 ],
					"text" : "mc.groove~ smpls.1 2 @loop 1 @chans 8"
				}

			}
, 			{
				"box" : 				{
					"id" : "obj-4",
					"maxclass" : "newobj",
					"numinlets" : 1,
					"numoutlets" : 2,
					"outlettype" : [ "", "bang" ],
					"patching_rect" : [ 834.5, 8.5, 103.0, 22.0 ],
					"saved_object_attributes" : 					{
						"embed" : 0
					}
,
					"text" : "polybuffer~ smpls"
				}

			}
, 			{
				"box" : 				{
					"id" : "obj-3",
					"maxclass" : "newobj",
					"numinlets" : 2,
					"numoutlets" : 1,
					"outlettype" : [ "signal" ],
					"patching_rect" : [ 572.0, 242.0, 56.0, 22.0 ],
					"text" : "rate~ 8 1"
				}

			}
, 			{
				"box" : 				{
					"data" : 					{
						"patcher" : 						{
							"fileversion" : 1,
							"appversion" : 							{
								"major" : 8,
								"minor" : 5,
								"revision" : 4,
								"architecture" : "x64",
								"modernui" : 1
							}
,
							"classnamespace" : "dsp.gen",
							"rect" : [ 34.0, 99.0, 1444.0, 849.0 ],
							"bglocked" : 0,
							"openinpresentation" : 0,
							"default_fontsize" : 12.0,
							"default_fontface" : 0,
							"default_fontname" : "Arial",
							"gridonopen" : 1,
							"gridsize" : [ 15.0, 15.0 ],
							"gridsnaponopen" : 1,
							"objectsnaponopen" : 1,
							"statusbarvisible" : 2,
							"toolbarvisible" : 1,
							"lefttoolbarpinned" : 0,
							"toptoolbarpinned" : 0,
							"righttoolbarpinned" : 0,
							"bottomtoolbarpinned" : 0,
							"toolbars_unpinned_last_save" : 0,
							"tallnewobj" : 0,
							"boxanimatetime" : 200,
							"enablehscroll" : 1,
							"enablevscroll" : 1,
							"devicewidth" : 0.0,
							"description" : "",
							"digest" : "",
							"tags" : "",
							"style" : "",
							"subpatcher_template" : "",
							"assistshowspatchername" : 0,
							"boxes" : [ 								{
									"box" : 									{
										"maxclass" : "newobj",
										"text" : "4",
										"id" : "obj-20",
										"numoutlets" : 1,
										"outlettype" : [ "" ],
										"patching_rect" : [ 214.0, 255.0, 19.0, 22.0 ],
										"numinlets" : 0
									}

								}
, 								{
									"box" : 									{
										"maxclass" : "newobj",
										"text" : "pow",
										"id" : "obj-19",
										"numoutlets" : 1,
										"outlettype" : [ "" ],
										"patching_rect" : [ 176.0, 300.0, 31.0, 22.0 ],
										"numinlets" : 2
									}

								}
, 								{
									"box" : 									{
										"maxclass" : "newobj",
										"text" : "*",
										"id" : "obj-18",
										"numoutlets" : 1,
										"outlettype" : [ "" ],
										"patching_rect" : [ 50.0, 315.0, 29.5, 22.0 ],
										"numinlets" : 2
									}

								}
, 								{
									"box" : 									{
										"maxclass" : "newobj",
										"text" : "clip 0. 1.",
										"id" : "obj-17",
										"numoutlets" : 1,
										"outlettype" : [ "" ],
										"patching_rect" : [ 105.0, 150.0, 53.0, 22.0 ],
										"numinlets" : 1
									}

								}
, 								{
									"box" : 									{
										"maxclass" : "newobj",
										"text" : "-",
										"id" : "obj-16",
										"numoutlets" : 1,
										"outlettype" : [ "" ],
										"patching_rect" : [ 105.0, 120.0, 29.5, 22.0 ],
										"numinlets" : 2
									}

								}
, 								{
									"box" : 									{
										"maxclass" : "newobj",
										"text" : "clip 0. 1.",
										"id" : "obj-15",
										"numoutlets" : 1,
										"outlettype" : [ "" ],
										"patching_rect" : [ 105.0, 45.0, 53.0, 22.0 ],
										"numinlets" : 1
									}

								}
, 								{
									"box" : 									{
										"maxclass" : "newobj",
										"text" : "!- 1.",
										"id" : "obj-14",
										"numoutlets" : 1,
										"outlettype" : [ "" ],
										"patching_rect" : [ 176.0, 195.0, 29.0, 22.0 ],
										"numinlets" : 1
									}

								}
, 								{
									"box" : 									{
										"maxclass" : "newobj",
										"text" : "+ 1",
										"id" : "obj-13",
										"numoutlets" : 1,
										"outlettype" : [ "" ],
										"patching_rect" : [ 176.0, 75.0, 26.0, 22.0 ],
										"numinlets" : 1
									}

								}
, 								{
									"box" : 									{
										"maxclass" : "newobj",
										"text" : "sin",
										"id" : "obj-12",
										"numoutlets" : 1,
										"outlettype" : [ "" ],
										"patching_rect" : [ 176.0, 255.0, 24.0, 22.0 ],
										"numinlets" : 1
									}

								}
, 								{
									"box" : 									{
										"maxclass" : "newobj",
										"text" : "* halfpi",
										"id" : "obj-11",
										"numoutlets" : 1,
										"outlettype" : [ "" ],
										"patching_rect" : [ 176.0, 225.0, 45.0, 22.0 ],
										"numinlets" : 1
									}

								}
, 								{
									"box" : 									{
										"maxclass" : "newobj",
										"text" : "clip 0. 1.",
										"id" : "obj-10",
										"numoutlets" : 1,
										"outlettype" : [ "" ],
										"patching_rect" : [ 176.0, 150.0, 53.0, 22.0 ],
										"numinlets" : 1
									}

								}
, 								{
									"box" : 									{
										"maxclass" : "newobj",
										"text" : "!-",
										"id" : "obj-9",
										"numoutlets" : 1,
										"outlettype" : [ "" ],
										"patching_rect" : [ 176.0, 120.0, 29.5, 22.0 ],
										"numinlets" : 2
									}

								}
, 								{
									"box" : 									{
										"maxclass" : "newobj",
										"text" : "/ 7.",
										"id" : "obj-8",
										"numoutlets" : 1,
										"outlettype" : [ "" ],
										"patching_rect" : [ 255.0, 75.0, 25.0, 22.0 ],
										"numinlets" : 1
									}

								}
, 								{
									"box" : 									{
										"maxclass" : "newobj",
										"text" : "- 1.",
										"id" : "obj-7",
										"numoutlets" : 1,
										"outlettype" : [ "" ],
										"patching_rect" : [ 255.0, 45.0, 26.0, 22.0 ],
										"numinlets" : 1
									}

								}
, 								{
									"box" : 									{
										"maxclass" : "newobj",
										"text" : "clip -1. 0.",
										"id" : "obj-6",
										"numoutlets" : 1,
										"outlettype" : [ "" ],
										"patching_rect" : [ 176.0, 45.0, 57.0, 22.0 ],
										"numinlets" : 1
									}

								}
, 								{
									"box" : 									{
										"maxclass" : "newobj",
										"text" : "mc_channel",
										"id" : "obj-5",
										"numoutlets" : 1,
										"outlettype" : [ "" ],
										"patching_rect" : [ 255.0, 15.0, 73.0, 22.0 ],
										"numinlets" : 0
									}

								}
, 								{
									"box" : 									{
										"maxclass" : "newobj",
										"text" : "in 1",
										"id" : "obj-1",
										"numoutlets" : 1,
										"outlettype" : [ "" ],
										"patching_rect" : [ 50.0, 14.0, 28.0, 22.0 ],
										"numinlets" : 0
									}

								}
, 								{
									"box" : 									{
										"maxclass" : "newobj",
										"text" : "in 2",
										"id" : "obj-2",
										"numoutlets" : 1,
										"outlettype" : [ "" ],
										"patching_rect" : [ 176.0, 14.0, 28.0, 22.0 ],
										"numinlets" : 0
									}

								}
, 								{
									"box" : 									{
										"maxclass" : "newobj",
										"text" : "out 1",
										"id" : "obj-4",
										"numoutlets" : 0,
										"patching_rect" : [ 50.0, 345.0, 35.0, 22.0 ],
										"numinlets" : 1
									}

								}
 ],
							"lines" : [ 								{
									"patchline" : 									{
										"source" : [ "obj-5", 0 ],
										"destination" : [ "obj-7", 0 ]
									}

								}
, 								{
									"patchline" : 									{
										"source" : [ "obj-7", 0 ],
										"destination" : [ "obj-8", 0 ]
									}

								}
, 								{
									"patchline" : 									{
										"source" : [ "obj-11", 0 ],
										"destination" : [ "obj-12", 0 ]
									}

								}
, 								{
									"patchline" : 									{
										"source" : [ "obj-14", 0 ],
										"destination" : [ "obj-11", 0 ]
									}

								}
, 								{
									"patchline" : 									{
										"source" : [ "obj-8", 0 ],
										"destination" : [ "obj-9", 1 ],
										"order" : 0
									}

								}
, 								{
									"patchline" : 									{
										"source" : [ "obj-13", 0 ],
										"destination" : [ "obj-9", 0 ]
									}

								}
, 								{
									"patchline" : 									{
										"source" : [ "obj-10", 0 ],
										"destination" : [ "obj-14", 0 ]
									}

								}
, 								{
									"patchline" : 									{
										"source" : [ "obj-9", 0 ],
										"destination" : [ "obj-10", 0 ]
									}

								}
, 								{
									"patchline" : 									{
										"source" : [ "obj-2", 0 ],
										"destination" : [ "obj-6", 0 ],
										"order" : 0
									}

								}
, 								{
									"patchline" : 									{
										"source" : [ "obj-6", 0 ],
										"destination" : [ "obj-13", 0 ]
									}

								}
, 								{
									"patchline" : 									{
										"source" : [ "obj-2", 0 ],
										"destination" : [ "obj-15", 0 ],
										"order" : 1
									}

								}
, 								{
									"patchline" : 									{
										"source" : [ "obj-15", 0 ],
										"destination" : [ "obj-16", 0 ]
									}

								}
, 								{
									"patchline" : 									{
										"source" : [ "obj-8", 0 ],
										"destination" : [ "obj-16", 1 ],
										"order" : 1
									}

								}
, 								{
									"patchline" : 									{
										"source" : [ "obj-16", 0 ],
										"destination" : [ "obj-17", 0 ]
									}

								}
, 								{
									"patchline" : 									{
										"source" : [ "obj-17", 0 ],
										"destination" : [ "obj-14", 0 ]
									}

								}
, 								{
									"patchline" : 									{
										"source" : [ "obj-1", 0 ],
										"destination" : [ "obj-18", 0 ]
									}

								}
, 								{
									"patchline" : 									{
										"source" : [ "obj-18", 0 ],
										"destination" : [ "obj-4", 0 ]
									}

								}
, 								{
									"patchline" : 									{
										"source" : [ "obj-12", 0 ],
										"destination" : [ "obj-19", 0 ]
									}

								}
, 								{
									"patchline" : 									{
										"source" : [ "obj-19", 0 ],
										"destination" : [ "obj-18", 1 ]
									}

								}
, 								{
									"patchline" : 									{
										"source" : [ "obj-20", 0 ],
										"destination" : [ "obj-19", 1 ]
									}

								}
 ]
						}

					}
,
					"id" : "obj-35",
					"maxclass" : "newobj",
					"numinlets" : 2,
					"numoutlets" : 1,
					"outlettype" : [ "multichannelsignal" ],
					"patching_rect" : [ 542.000000000000114, 703.0, 112.0, 22.0 ],
					"text" : "mc.gen~ @chans 8",
					"wrapper_uniquekey" : "u444004489"
				}

			}
, 			{
				"box" : 				{
					"data" : 					{
						"patcher" : 						{
							"fileversion" : 1,
							"appversion" : 							{
								"major" : 8,
								"minor" : 5,
								"revision" : 4,
								"architecture" : "x64",
								"modernui" : 1
							}
,
							"classnamespace" : "dsp.gen",
							"rect" : [ 34.0, 99.0, 1444.0, 849.0 ],
							"bglocked" : 0,
							"openinpresentation" : 0,
							"default_fontsize" : 12.0,
							"default_fontface" : 0,
							"default_fontname" : "Arial",
							"gridonopen" : 1,
							"gridsize" : [ 15.0, 15.0 ],
							"gridsnaponopen" : 1,
							"objectsnaponopen" : 1,
							"statusbarvisible" : 2,
							"toolbarvisible" : 1,
							"lefttoolbarpinned" : 0,
							"toptoolbarpinned" : 0,
							"righttoolbarpinned" : 0,
							"bottomtoolbarpinned" : 0,
							"toolbars_unpinned_last_save" : 0,
							"tallnewobj" : 0,
							"boxanimatetime" : 200,
							"enablehscroll" : 1,
							"enablevscroll" : 1,
							"devicewidth" : 0.0,
							"description" : "",
							"digest" : "",
							"tags" : "",
							"style" : "",
							"subpatcher_template" : "",
							"assistshowspatchername" : 0,
							"boxes" : [ 								{
									"box" : 									{
										"maxclass" : "newobj",
										"text" : "- 1",
										"id" : "obj-14",
										"numoutlets" : 1,
										"outlettype" : [ "" ],
										"patching_rect" : [ 174.0, 139.0, 23.0, 22.0 ],
										"numinlets" : 1
									}

								}
, 								{
									"box" : 									{
										"maxclass" : "newobj",
										"text" : "clip 1 2",
										"id" : "obj-13",
										"numoutlets" : 1,
										"outlettype" : [ "" ],
										"patching_rect" : [ 174.0, 109.0, 47.0, 22.0 ],
										"numinlets" : 1
									}

								}
, 								{
									"box" : 									{
										"maxclass" : "newobj",
										"text" : "clip 0 1",
										"id" : "obj-12",
										"numoutlets" : 1,
										"outlettype" : [ "" ],
										"patching_rect" : [ 49.0, 113.0, 47.0, 22.0 ],
										"numinlets" : 1
									}

								}
, 								{
									"box" : 									{
										"maxclass" : "newobj",
										"text" : "in 3 C",
										"id" : "obj-11",
										"numoutlets" : 1,
										"outlettype" : [ "" ],
										"patching_rect" : [ 159.0, 33.0, 40.0, 22.0 ],
										"numinlets" : 0
									}

								}
, 								{
									"box" : 									{
										"maxclass" : "newobj",
										"text" : "*",
										"id" : "obj-7",
										"numoutlets" : 1,
										"outlettype" : [ "" ],
										"patching_rect" : [ 159.0, 223.0, 34.0, 22.0 ],
										"numinlets" : 2
									}

								}
, 								{
									"box" : 									{
										"maxclass" : "newobj",
										"text" : "sin",
										"id" : "obj-8",
										"numoutlets" : 1,
										"outlettype" : [ "" ],
										"patching_rect" : [ 174.0, 192.0, 24.0, 22.0 ],
										"numinlets" : 1
									}

								}
, 								{
									"box" : 									{
										"maxclass" : "newobj",
										"text" : "* halfpi",
										"id" : "obj-10",
										"numoutlets" : 1,
										"outlettype" : [ "" ],
										"patching_rect" : [ 174.0, 168.0, 45.0, 22.0 ],
										"numinlets" : 1
									}

								}
, 								{
									"box" : 									{
										"maxclass" : "newobj",
										"text" : "out 1 A+B",
										"id" : "obj-9",
										"numoutlets" : 0,
										"patching_rect" : [ 111.0, 288.0, 61.0, 22.0 ],
										"numinlets" : 1
									}

								}
, 								{
									"box" : 									{
										"maxclass" : "newobj",
										"text" : "*",
										"id" : "obj-6",
										"numoutlets" : 1,
										"outlettype" : [ "" ],
										"patching_rect" : [ 90.0, 223.0, 34.0, 22.0 ],
										"numinlets" : 2
									}

								}
, 								{
									"box" : 									{
										"maxclass" : "newobj",
										"text" : "*",
										"id" : "obj-5",
										"numoutlets" : 1,
										"outlettype" : [ "" ],
										"patching_rect" : [ 34.0, 223.0, 34.0, 22.0 ],
										"numinlets" : 2
									}

								}
, 								{
									"box" : 									{
										"maxclass" : "newobj",
										"text" : "in 2 B",
										"id" : "obj-4",
										"numoutlets" : 1,
										"outlettype" : [ "" ],
										"patching_rect" : [ 90.0, 33.0, 39.0, 22.0 ],
										"numinlets" : 0
									}

								}
, 								{
									"box" : 									{
										"maxclass" : "newobj",
										"text" : "in 1 A",
										"id" : "obj-2",
										"numoutlets" : 1,
										"outlettype" : [ "" ],
										"patching_rect" : [ 34.0, 33.0, 39.0, 22.0 ],
										"numinlets" : 0
									}

								}
, 								{
									"box" : 									{
										"maxclass" : "newobj",
										"text" : "!- 1",
										"id" : "obj-1",
										"numoutlets" : 1,
										"outlettype" : [ "" ],
										"patching_rect" : [ 49.0, 144.0, 26.0, 22.0 ],
										"numinlets" : 1
									}

								}
, 								{
									"box" : 									{
										"maxclass" : "newobj",
										"text" : "sin",
										"id" : "obj-20",
										"numoutlets" : 1,
										"outlettype" : [ "" ],
										"patching_rect" : [ 49.0, 192.0, 24.0, 22.0 ],
										"numinlets" : 1
									}

								}
, 								{
									"box" : 									{
										"maxclass" : "newobj",
										"text" : "* halfpi",
										"id" : "obj-21",
										"numoutlets" : 1,
										"outlettype" : [ "" ],
										"patching_rect" : [ 49.0, 168.0, 45.0, 22.0 ],
										"numinlets" : 1
									}

								}
, 								{
									"box" : 									{
										"maxclass" : "newobj",
										"text" : "sin",
										"id" : "obj-19",
										"numoutlets" : 1,
										"outlettype" : [ "" ],
										"patching_rect" : [ 105.0, 192.0, 24.0, 22.0 ],
										"numinlets" : 1
									}

								}
, 								{
									"box" : 									{
										"maxclass" : "newobj",
										"text" : "* halfpi",
										"id" : "obj-18",
										"numoutlets" : 1,
										"outlettype" : [ "" ],
										"patching_rect" : [ 105.0, 168.0, 45.0, 22.0 ],
										"numinlets" : 1
									}

								}
, 								{
									"box" : 									{
										"maxclass" : "newobj",
										"text" : "in 4 mix",
										"id" : "obj-28",
										"numoutlets" : 1,
										"outlettype" : [ "" ],
										"patching_rect" : [ 241.5, 33.0, 50.0, 22.0 ],
										"numinlets" : 0
									}

								}
 ],
							"lines" : [ 								{
									"patchline" : 									{
										"source" : [ "obj-4", 0 ],
										"destination" : [ "obj-6", 0 ]
									}

								}
, 								{
									"patchline" : 									{
										"source" : [ "obj-21", 0 ],
										"destination" : [ "obj-20", 0 ]
									}

								}
, 								{
									"patchline" : 									{
										"source" : [ "obj-20", 0 ],
										"destination" : [ "obj-5", 1 ]
									}

								}
, 								{
									"patchline" : 									{
										"source" : [ "obj-2", 0 ],
										"destination" : [ "obj-5", 0 ]
									}

								}
, 								{
									"patchline" : 									{
										"source" : [ "obj-19", 0 ],
										"destination" : [ "obj-6", 1 ]
									}

								}
, 								{
									"patchline" : 									{
										"source" : [ "obj-18", 0 ],
										"destination" : [ "obj-19", 0 ]
									}

								}
, 								{
									"patchline" : 									{
										"source" : [ "obj-1", 0 ],
										"destination" : [ "obj-21", 0 ]
									}

								}
, 								{
									"patchline" : 									{
										"source" : [ "obj-10", 0 ],
										"destination" : [ "obj-8", 0 ]
									}

								}
, 								{
									"patchline" : 									{
										"source" : [ "obj-8", 0 ],
										"destination" : [ "obj-7", 1 ]
									}

								}
, 								{
									"patchline" : 									{
										"source" : [ "obj-12", 0 ],
										"destination" : [ "obj-1", 0 ]
									}

								}
, 								{
									"patchline" : 									{
										"source" : [ "obj-11", 0 ],
										"destination" : [ "obj-7", 0 ]
									}

								}
, 								{
									"patchline" : 									{
										"source" : [ "obj-13", 0 ],
										"destination" : [ "obj-14", 0 ]
									}

								}
, 								{
									"patchline" : 									{
										"source" : [ "obj-14", 0 ],
										"destination" : [ "obj-10", 0 ]
									}

								}
, 								{
									"patchline" : 									{
										"source" : [ "obj-7", 0 ],
										"destination" : [ "obj-9", 0 ]
									}

								}
, 								{
									"patchline" : 									{
										"source" : [ "obj-5", 0 ],
										"destination" : [ "obj-9", 0 ]
									}

								}
, 								{
									"patchline" : 									{
										"source" : [ "obj-6", 0 ],
										"destination" : [ "obj-9", 0 ]
									}

								}
, 								{
									"patchline" : 									{
										"source" : [ "obj-28", 0 ],
										"destination" : [ "obj-13", 0 ],
										"order" : 0
									}

								}
, 								{
									"patchline" : 									{
										"source" : [ "obj-28", 0 ],
										"destination" : [ "obj-18", 0 ],
										"order" : 1
									}

								}
, 								{
									"patchline" : 									{
										"source" : [ "obj-28", 0 ],
										"destination" : [ "obj-12", 0 ],
										"order" : 2
									}

								}
 ]
						}

					}
,
					"id" : "obj-10",
					"maxclass" : "newobj",
					"numinlets" : 4,
					"numoutlets" : 1,
					"outlettype" : [ "multichannelsignal" ],
					"patching_rect" : [ 542.000000000000114, 658.0, 179.999999999999886, 22.0 ],
					"text" : "mc.gen~",
					"wrapper_uniquekey" : "u225004507"
				}

			}
, 			{
				"box" : 				{
					"id" : "obj-8",
					"maxclass" : "newobj",
					"numinlets" : 1,
					"numoutlets" : 3,
					"outlettype" : [ "multichannelsignal", "multichannelsignal", "multichannelsignal" ],
					"patching_rect" : [ 542.0, 561.0, 126.333333333333371, 22.0 ],
					"text" : "mc.separate~ 8 8"
				}

			}
, 			{
				"box" : 				{
					"id" : "obj-112",
					"maxclass" : "newobj",
					"numinlets" : 1,
					"numoutlets" : 1,
					"outlettype" : [ "bang" ],
					"patching_rect" : [ 857.0, 133.0, 58.0, 22.0 ],
					"text" : "loadbang"
				}

			}
, 			{
				"box" : 				{
					"id" : "obj-111",
					"maxclass" : "newobj",
					"numinlets" : 1,
					"numoutlets" : 2,
					"outlettype" : [ "int", "int" ],
					"patching_rect" : [ 879.0, 204.0, 29.5, 22.0 ],
					"text" : "t i i"
				}

			}
, 			{
				"box" : 				{
					"id" : "obj-110",
					"maxclass" : "newobj",
					"numinlets" : 2,
					"numoutlets" : 3,
					"outlettype" : [ "bang", "bang", "int" ],
					"patching_rect" : [ 857.0, 168.0, 41.0, 22.0 ],
					"text" : "uzi 24"
				}

			}
, 			{
				"box" : 				{
					"id" : "obj-109",
					"maxclass" : "newobj",
					"numinlets" : 2,
					"numoutlets" : 2,
					"outlettype" : [ "setvalue", "int" ],
					"patching_rect" : [ 625.0, 313.0, 59.0, 22.0 ],
					"text" : "mc.target"
				}

			}
, 			{
				"box" : 				{
					"id" : "obj-108",
					"maxclass" : "newobj",
					"numinlets" : 1,
					"numoutlets" : 1,
					"outlettype" : [ "" ],
					"patching_rect" : [ 774.0, 477.0, 80.0, 22.0 ],
					"text" : "prepend prob"
				}

			}
, 			{
				"box" : 				{
					"id" : "obj-107",
					"maxclass" : "newobj",
					"numinlets" : 1,
					"numoutlets" : 2,
					"outlettype" : [ "", "" ],
					"patching_rect" : [ 879.0, 268.0, 29.5, 22.0 ],
					"text" : "t l l"
				}

			}
, 			{
				"box" : 				{
					"id" : "obj-104",
					"maxclass" : "newobj",
					"numinlets" : 1,
					"numoutlets" : 2,
					"outlettype" : [ "bang", "int" ],
					"patching_rect" : [ 774.0, 328.0, 29.5, 22.0 ],
					"text" : "t b i"
				}

			}
, 			{
				"box" : 				{
					"id" : "obj-103",
					"maxclass" : "newobj",
					"numinlets" : 2,
					"numoutlets" : 2,
					"outlettype" : [ "", "" ],
					"patching_rect" : [ 774.0, 446.0, 51.0, 22.0 ],
					"text" : "zl.group"
				}

			}
, 			{
				"box" : 				{
					"id" : "obj-102",
					"maxclass" : "newobj",
					"numinlets" : 2,
					"numoutlets" : 1,
					"outlettype" : [ "int" ],
					"patching_rect" : [ 816.0, 406.0, 29.5, 22.0 ],
					"text" : "% 2"
				}

			}
, 			{
				"box" : 				{
					"id" : "obj-101",
					"maxclass" : "newobj",
					"numinlets" : 2,
					"numoutlets" : 2,
					"outlettype" : [ "", "" ],
					"patching_rect" : [ 774.0, 283.0, 37.0, 22.0 ],
					"text" : "zl.len"
				}

			}
, 			{
				"box" : 				{
					"id" : "obj-100",
					"maxclass" : "newobj",
					"numinlets" : 2,
					"numoutlets" : 3,
					"outlettype" : [ "bang", "bang", "int" ],
					"patching_rect" : [ 795.0, 368.0, 44.0, 22.0 ],
					"text" : "uzi 8 0"
				}

			}
, 			{
				"box" : 				{
					"id" : "obj-22",
					"maxclass" : "newobj",
					"numinlets" : 2,
					"numoutlets" : 1,
					"outlettype" : [ "multichannelsignal" ],
					"patching_rect" : [ 572.0, 418.0, 62.0, 22.0 ],
					"text" : "mc.+~ 0.5"
				}

			}
, 			{
				"box" : 				{
					"id" : "obj-17",
					"maxclass" : "newobj",
					"numinlets" : 6,
					"numoutlets" : 1,
					"outlettype" : [ "multichannelsignal" ],
					"patching_rect" : [ 542.0, 508.0, 120.0, 22.0 ],
					"text" : "mc.scale~ -1. 1. 1. 0."
				}

			}
, 			{
				"box" : 				{
					"id" : "obj-16",
					"maxclass" : "newobj",
					"numinlets" : 2,
					"numoutlets" : 1,
					"outlettype" : [ "multichannelsignal" ],
					"patching_rect" : [ 542.0, 463.0, 62.0, 22.0 ],
					"text" : "mc.cycle~"
				}

			}
, 			{
				"box" : 				{
					"id" : "obj-14",
					"maxclass" : "newobj",
					"numinlets" : 1,
					"numoutlets" : 1,
					"outlettype" : [ "" ],
					"patching_rect" : [ 831.0, 327.0, 93.0, 22.0 ],
					"text" : "prepend pattern"
				}

			}
, 			{
				"box" : 				{
					"id" : "obj-9",
					"maxclass" : "newobj",
					"numinlets" : 2,
					"numoutlets" : 1,
					"outlettype" : [ "signal" ],
					"patching_rect" : [ 572.0, 195.0, 116.0, 22.0 ],
					"text" : "phasor~ 1n @lock 1"
				}

			}
, 			{
				"box" : 				{
					"coll_data" : 					{
						"count" : 24,
						"data" : [ 							{
								"key" : 1,
								"value" : [ 1, 1, 1, 6, 1 ]
							}
, 							{
								"key" : 2,
								"value" : [ 2, 1, 1, 5, 1 ]
							}
, 							{
								"key" : 3,
								"value" : [ 1, 3, 1, 4, 1 ]
							}
, 							{
								"key" : 4,
								"value" : [ 2, 3, 1, 3, 1 ]
							}
, 							{
								"key" : 5,
								"value" : [ 1, 5, 1, 2, 1 ]
							}
, 							{
								"key" : 6,
								"value" : [ 2, 5, 1, 1, 1 ]
							}
, 							{
								"key" : 7,
								"value" : [ 1, 7, 2 ]
							}
, 							{
								"key" : 8,
								"value" : [ 2, 7, 1 ]
							}
, 							{
								"key" : 9,
								"value" : [ 1, 1, 1, 3, 1, 1, 2 ]
							}
, 							{
								"key" : 10,
								"value" : [ 2, 1, 2, 2, 1, 1, 1 ]
							}
, 							{
								"key" : 11,
								"value" : [ 1, 1, 1, 1, 2, 2, 2 ]
							}
, 							{
								"key" : 12,
								"value" : [ 1, 2, 1, 1, 1, 3, 1 ]
							}
, 							{
								"key" : 13,
								"value" : [ 1, 1, 1, 1, 1, 1, 1, 1, 2 ]
							}
, 							{
								"key" : 14,
								"value" : [ 2, 3, 1, 1, 3 ]
							}
, 							{
								"key" : 15,
								"value" : [ 1, 3, 3, 1, 2 ]
							}
, 							{
								"key" : 16,
								"value" : [ 2, 3, 1, 1, 1, 1, 1 ]
							}
, 							{
								"key" : 17,
								"value" : [ 1, 3, 1, 1, 1, 1, 2 ]
							}
, 							{
								"key" : 18,
								"value" : [ 2, 1, 1, 3, 1, 1, 1 ]
							}
, 							{
								"key" : 19,
								"value" : [ 1, 1, 1, 1, 1, 1, 1, 1, 2 ]
							}
, 							{
								"key" : 20,
								"value" : [ 2, 3, 1, 1, 1, 1, 1 ]
							}
, 							{
								"key" : 21,
								"value" : [ 1, 1, 1, 3, 1, 1, 2 ]
							}
, 							{
								"key" : 22,
								"value" : [ 2, 1, 1, 3, 1, 1, 1 ]
							}
, 							{
								"key" : 23,
								"value" : [ 1, 3, 1, 3, 2 ]
							}
, 							{
								"key" : 24,
								"value" : [ 2, 3, 1, 3, 1 ]
							}
 ]
					}
,
					"id" : "obj-7",
					"maxclass" : "newobj",
					"numinlets" : 1,
					"numoutlets" : 4,
					"outlettype" : [ "", "", "", "" ],
					"patching_rect" : [ 879.0, 238.0, 60.0, 22.0 ],
					"saved_object_attributes" : 					{
						"embed" : 1,
						"precision" : 6
					}
,
					"text" : "coll ptrs 1"
				}

			}
, 			{
				"box" : 				{
					"id" : "obj-6",
					"maxclass" : "newobj",
					"numinlets" : 1,
					"numoutlets" : 4,
					"outlettype" : [ "multichannelsignal", "multichannelsignal", "", "" ],
					"patching_rect" : [ 572.0, 373.0, 150.0, 22.0 ],
					"text" : "mc.subdiv~ 10 @chans 24"
				}

			}
, 			{
				"box" : 				{
					"id" : "obj-2",
					"maxclass" : "newobj",
					"numinlets" : 2,
					"numoutlets" : 9,
					"outlettype" : [ "int", "int", "float", "float", "float", "", "int", "float", "" ],
					"patching_rect" : [ 13.0, 78.5, 103.0, 22.0 ],
					"text" : "transport"
				}

			}
, 			{
				"box" : 				{
					"id" : "obj-1",
					"maxclass" : "newobj",
					"numinlets" : 1,
					"numoutlets" : 1,
					"outlettype" : [ "" ],
					"patching_rect" : [ 45.0, 45.0, 89.0, 22.0 ],
					"text" : "prepend tempo"
				}

			}
, 			{
				"box" : 				{
					"id" : "obj-132",
					"maxclass" : "message",
					"numinlets" : 2,
					"numoutlets" : 1,
					"outlettype" : [ "" ],
					"patching_rect" : [ 1053.0, 45.0, 55.0, 22.0 ],
					"text" : "getrow 0"
				}

			}
, 			{
				"box" : 				{
					"id" : "obj-130",
					"maxclass" : "newobj",
					"numinlets" : 1,
					"numoutlets" : 1,
					"outlettype" : [ "" ],
					"patching_rect" : [ 1228.0, 113.5, 96.0, 22.0 ],
					"saved_object_attributes" : 					{
						"filename" : "vo.scale",
						"parameter_enable" : 0
					}
,
					"text" : "js vo.scale scale",
					"varname" : "js"
				}

			}
, 			{
				"box" : 				{
					"id" : "obj-119",
					"maxclass" : "newobj",
					"numinlets" : 1,
					"numoutlets" : 1,
					"outlettype" : [ "bang" ],
					"patching_rect" : [ 1053.0, 8.5, 58.0, 22.0 ],
					"text" : "loadbang"
				}

			}
, 			{
				"box" : 				{
					"autosize" : 1,
					"columns" : 12,
					"id" : "obj-118",
					"maxclass" : "matrixctrl",
					"numinlets" : 1,
					"numoutlets" : 2,
					"outlettype" : [ "list", "list" ],
					"parameter_enable" : 0,
					"patching_rect" : [ 1053.0, 78.5, 194.0, 18.0 ],
					"rows" : 1,
					"varname" : "energy_scale"
				}

			}
, 			{
				"box" : 				{
					"id" : "obj-114",
					"maxclass" : "newobj",
					"numinlets" : 1,
					"numoutlets" : 2,
					"outlettype" : [ "float", "bang" ],
					"patching_rect" : [ 962.0, 8.5, 77.0, 22.0 ],
					"text" : "buffer~ scale"
				}

			}
, 			{
				"box" : 				{
					"id" : "obj-210",
					"maxclass" : "newobj",
					"numinlets" : 1,
					"numoutlets" : 4,
					"outlettype" : [ "", "", "", "" ],
					"patching_rect" : [ 1168.0, 41.5, 135.0, 22.0 ],
					"restore" : 					{
						"clock_active" : [ 1 ],
						"energy_scale" : [ 0, 0, 1.0 ],
						"number" : [ 12 ],
						"tempo" : [ 70 ]
					}
,
					"text" : "autopattr @autoname 1",
					"varname" : "u018000623"
				}

			}
, 			{
				"box" : 				{
					"autorestore" : "ui.json",
					"id" : "obj-209",
					"maxclass" : "newobj",
					"numinlets" : 1,
					"numoutlets" : 1,
					"outlettype" : [ "" ],
					"patching_rect" : [ 1137.0, 8.5, 166.0, 22.0 ],
					"saved_object_attributes" : 					{
						"client_rect" : [ 100, 100, 500, 600 ],
						"parameter_enable" : 0,
						"parameter_mappable" : 0,
						"storage_rect" : [ 200, 200, 800, 500 ]
					}
,
					"text" : "pattrstorage ui @savemode 2",
					"varname" : "ui"
				}

			}
, 			{
				"box" : 				{
					"id" : "obj-89",
					"maxclass" : "number",
					"numinlets" : 1,
					"numoutlets" : 2,
					"outlettype" : [ "", "bang" ],
					"parameter_enable" : 0,
					"patching_rect" : [ 45.0, 12.5, 50.0, 22.0 ],
					"varname" : "tempo"
				}

			}
, 			{
				"box" : 				{
					"id" : "obj-86",
					"maxclass" : "toggle",
					"numinlets" : 1,
					"numoutlets" : 1,
					"outlettype" : [ "int" ],
					"parameter_enable" : 0,
					"patching_rect" : [ 13.0, 12.5, 24.0, 24.0 ],
					"varname" : "clock_active"
				}

			}
, 			{
				"box" : 				{
					"id" : "obj-73",
					"maxclass" : "number",
					"numinlets" : 1,
					"numoutlets" : 2,
					"outlettype" : [ "", "bang" ],
					"parameter_enable" : 0,
					"patching_rect" : [ 1309.0, 73.5, 50.0, 22.0 ],
					"varname" : "number"
				}

			}
, 			{
				"box" : 				{
					"id" : "obj-71",
					"maxclass" : "newobj",
					"numinlets" : 2,
					"numoutlets" : 2,
					"outlettype" : [ "", "int" ],
					"patching_rect" : [ 1309.0, 41.5, 77.0, 22.0 ],
					"text" : "adstatus cpu"
				}

			}
, 			{
				"box" : 				{
					"id" : "obj-70",
					"maxclass" : "newobj",
					"numinlets" : 2,
					"numoutlets" : 1,
					"outlettype" : [ "bang" ],
					"patching_rect" : [ 1309.0, 8.5, 119.0, 22.0 ],
					"text" : "metro 500 @active 1"
				}

			}
 ],
		"lines" : [ 			{
				"patchline" : 				{
					"destination" : [ "obj-2", 0 ],
					"midpoints" : [ 54.5, 72.25, 22.5, 72.25 ],
					"source" : [ "obj-1", 0 ]
				}

			}
, 			{
				"patchline" : 				{
					"destination" : [ "obj-35", 0 ],
					"midpoints" : [ 551.500000000000114, 691.0, 551.500000000000114, 691.0 ],
					"source" : [ "obj-10", 0 ]
				}

			}
, 			{
				"patchline" : 				{
					"destination" : [ "obj-102", 0 ],
					"midpoints" : [ 829.5, 397.5, 825.5, 397.5 ],
					"source" : [ "obj-100", 2 ]
				}

			}
, 			{
				"patchline" : 				{
					"destination" : [ "obj-104", 0 ],
					"midpoints" : [ 783.5, 316.0, 783.5, 316.0 ],
					"source" : [ "obj-101", 0 ]
				}

			}
, 			{
				"patchline" : 				{
					"destination" : [ "obj-103", 0 ],
					"midpoints" : [ 825.5, 436.5, 783.5, 436.5 ],
					"source" : [ "obj-102", 0 ]
				}

			}
, 			{
				"patchline" : 				{
					"destination" : [ "obj-108", 0 ],
					"midpoints" : [ 783.5, 472.0, 783.5, 472.0 ],
					"source" : [ "obj-103", 0 ]
				}

			}
, 			{
				"patchline" : 				{
					"destination" : [ "obj-100", 0 ],
					"midpoints" : [ 794.0, 358.5, 804.5, 358.5 ],
					"source" : [ "obj-104", 1 ]
				}

			}
, 			{
				"patchline" : 				{
					"destination" : [ "obj-103", 0 ],
					"midpoints" : [ 783.5, 397.5, 783.5, 397.5 ],
					"source" : [ "obj-104", 0 ]
				}

			}
, 			{
				"patchline" : 				{
					"destination" : [ "obj-101", 0 ],
					"midpoints" : [ 888.5, 300.0, 836.0, 300.0, 836.0, 272.0, 783.5, 272.0 ],
					"source" : [ "obj-107", 0 ]
				}

			}
, 			{
				"patchline" : 				{
					"destination" : [ "obj-14", 0 ],
					"midpoints" : [ 899.0, 308.0, 840.5, 308.0 ],
					"source" : [ "obj-107", 1 ]
				}

			}
, 			{
				"patchline" : 				{
					"destination" : [ "obj-109", 0 ],
					"midpoints" : [ 783.5, 509.0, 709.0, 509.0, 709.0, 302.0, 634.5, 302.0 ],
					"source" : [ "obj-108", 0 ]
				}

			}
, 			{
				"patchline" : 				{
					"destination" : [ "obj-6", 0 ],
					"midpoints" : [ 634.5, 353.5, 581.5, 353.5 ],
					"source" : [ "obj-109", 0 ]
				}

			}
, 			{
				"patchline" : 				{
					"destination" : [ "obj-12", 0 ],
					"midpoints" : [ 207.5, 79.5, 207.5, 79.5 ],
					"source" : [ "obj-11", 0 ]
				}

			}
, 			{
				"patchline" : 				{
					"destination" : [ "obj-111", 0 ],
					"midpoints" : [ 888.5, 196.5, 888.5, 196.5 ],
					"source" : [ "obj-110", 2 ]
				}

			}
, 			{
				"patchline" : 				{
					"destination" : [ "obj-109", 1 ],
					"midpoints" : [ 899.0, 269.0, 674.5, 269.0 ],
					"source" : [ "obj-111", 1 ]
				}

			}
, 			{
				"patchline" : 				{
					"destination" : [ "obj-7", 0 ],
					"midpoints" : [ 888.5, 231.5, 888.5, 231.5 ],
					"source" : [ "obj-111", 0 ]
				}

			}
, 			{
				"patchline" : 				{
					"destination" : [ "obj-110", 0 ],
					"midpoints" : [ 866.5, 161.0, 866.5, 161.0 ],
					"source" : [ "obj-112", 0 ]
				}

			}
, 			{
				"patchline" : 				{
					"destination" : [ "obj-130", 0 ],
					"midpoints" : [ 1237.5, 104.5, 1237.5, 104.5 ],
					"source" : [ "obj-118", 1 ]
				}

			}
, 			{
				"patchline" : 				{
					"destination" : [ "obj-132", 0 ],
					"midpoints" : [ 1062.5, 106.5, 1062.5, 106.5, 1062.5, 34.0, 1062.5, 34.0 ],
					"source" : [ "obj-118", 0 ]
				}

			}
, 			{
				"patchline" : 				{
					"destination" : [ "obj-132", 0 ],
					"midpoints" : [ 1062.5, 37.25, 1062.5, 37.25 ],
					"source" : [ "obj-119", 0 ]
				}

			}
, 			{
				"patchline" : 				{
					"destination" : [ "obj-19", 0 ],
					"midpoints" : [ 228.5, 109.5, 228.5, 109.5 ],
					"source" : [ "obj-12", 2 ]
				}

			}
, 			{
				"patchline" : 				{
					"destination" : [ "obj-15", 0 ],
					"midpoints" : [ 76.5, 266.0, 76.5, 266.0 ],
					"source" : [ "obj-13", 0 ]
				}

			}
, 			{
				"patchline" : 				{
					"destination" : [ "obj-118", 0 ],
					"midpoints" : [ 1062.5, 72.25, 1062.5, 72.25 ],
					"source" : [ "obj-132", 0 ]
				}

			}
, 			{
				"patchline" : 				{
					"destination" : [ "obj-109", 0 ],
					"midpoints" : [ 840.5, 359.0, 737.5, 359.0, 737.5, 302.0, 634.5, 302.0 ],
					"source" : [ "obj-14", 0 ]
				}

			}
, 			{
				"patchline" : 				{
					"destination" : [ "obj-18", 0 ],
					"midpoints" : [ 76.5, 300.5, 76.5, 300.5 ],
					"source" : [ "obj-15", 0 ]
				}

			}
, 			{
				"patchline" : 				{
					"destination" : [ "obj-17", 0 ],
					"midpoints" : [ 551.5, 496.0, 551.5, 496.0 ],
					"source" : [ "obj-16", 0 ]
				}

			}
, 			{
				"patchline" : 				{
					"destination" : [ "obj-8", 0 ],
					"midpoints" : [ 551.5, 545.0, 551.5, 545.0 ],
					"source" : [ "obj-17", 0 ]
				}

			}
, 			{
				"patchline" : 				{
					"destination" : [ "obj-5", 0 ],
					"midpoints" : [ 76.5, 336.0, 76.5, 336.0 ],
					"source" : [ "obj-18", 0 ]
				}

			}
, 			{
				"patchline" : 				{
					"destination" : [ "obj-18", 1 ],
					"midpoints" : [ 239.0, 220.75, 116.5, 220.75 ],
					"source" : [ "obj-19", 1 ]
				}

			}
, 			{
				"patchline" : 				{
					"destination" : [ "obj-25", 0 ],
					"midpoints" : [ 228.5, 142.75, 228.5, 142.75 ],
					"source" : [ "obj-19", 0 ]
				}

			}
, 			{
				"patchline" : 				{
					"destination" : [ "obj-31", 0 ],
					"midpoints" : [ 76.5, 451.0, 76.5, 451.0 ],
					"source" : [ "obj-20", 0 ]
				}

			}
, 			{
				"patchline" : 				{
					"destination" : [ "obj-16", 1 ],
					"midpoints" : [ 581.5, 451.0, 594.5, 451.0 ],
					"source" : [ "obj-22", 0 ]
				}

			}
, 			{
				"patchline" : 				{
					"destination" : [ "obj-26", 0 ],
					"midpoints" : [ 228.5, 205.0, 228.5, 205.0 ],
					"source" : [ "obj-24", 0 ]
				}

			}
, 			{
				"patchline" : 				{
					"destination" : [ "obj-24", 0 ],
					"midpoints" : [ 228.5, 176.0, 228.5, 176.0 ],
					"source" : [ "obj-25", 0 ]
				}

			}
, 			{
				"patchline" : 				{
					"destination" : [ "obj-13", 2 ],
					"midpoints" : [ 228.5, 234.0, 228.5, 234.0 ],
					"source" : [ "obj-26", 0 ]
				}

			}
, 			{
				"patchline" : 				{
					"destination" : [ "obj-28", 0 ],
					"midpoints" : [ 159.5, 300.5, 159.5, 300.5 ],
					"source" : [ "obj-27", 0 ]
				}

			}
, 			{
				"patchline" : 				{
					"destination" : [ "obj-5", 0 ],
					"midpoints" : [ 159.5, 336.0, 76.5, 336.0 ],
					"source" : [ "obj-28", 0 ]
				}

			}
, 			{
				"patchline" : 				{
					"destination" : [ "obj-32", 0 ],
					"midpoints" : [ 76.5, 527.5, 76.5, 527.5 ],
					"source" : [ "obj-29", 0 ]
				}

			}
, 			{
				"patchline" : 				{
					"destination" : [ "obj-6", 0 ],
					"midpoints" : [ 581.5, 318.0, 581.5, 318.0 ],
					"source" : [ "obj-3", 0 ]
				}

			}
, 			{
				"patchline" : 				{
					"destination" : [ "obj-31", 1 ],
					"midpoints" : [ 183.0, 451.0, 144.5, 451.0 ],
					"source" : [ "obj-30", 0 ]
				}

			}
, 			{
				"patchline" : 				{
					"destination" : [ "obj-29", 0 ],
					"midpoints" : [ 76.5, 491.5, 76.5, 491.5 ],
					"source" : [ "obj-31", 0 ]
				}

			}
, 			{
				"patchline" : 				{
					"destination" : [ "obj-20", 1 ],
					"midpoints" : [ 551.500000000000114, 735.0, 324.500000000000057, 735.0, 324.500000000000057, 407.0, 97.5, 407.0 ],
					"order" : 2,
					"source" : [ "obj-35", 0 ]
				}

			}
, 			{
				"patchline" : 				{
					"destination" : [ "obj-30", 1 ],
					"midpoints" : [ 551.500000000000114, 735.0, 377.750000000000057, 735.0, 377.750000000000057, 407.0, 204.0, 407.0 ],
					"order" : 1,
					"source" : [ "obj-35", 0 ]
				}

			}
, 			{
				"patchline" : 				{
					"destination" : [ "obj-37", 0 ],
					"midpoints" : [ 551.500000000000114, 735.0, 783.5, 735.0, 783.5, 157.0, 1015.5, 157.0 ],
					"order" : 0,
					"source" : [ "obj-35", 0 ]
				}

			}
, 			{
				"patchline" : 				{
					"destination" : [ "obj-36", 0 ],
					"midpoints" : [ 1015.5, 215.5, 1015.5, 215.5 ],
					"source" : [ "obj-37", 0 ]
				}

			}
, 			{
				"patchline" : 				{
					"destination" : [ "obj-38", 0 ],
					"midpoints" : [ 1026.0, 251.0, 1015.5, 251.0 ],
					"source" : [ "obj-37", 1 ]
				}

			}
, 			{
				"patchline" : 				{
					"destination" : [ "obj-39", 0 ],
					"midpoints" : [ 1036.5, 286.0, 1015.5, 286.0 ],
					"source" : [ "obj-37", 2 ]
				}

			}
, 			{
				"patchline" : 				{
					"destination" : [ "obj-40", 0 ],
					"midpoints" : [ 1047.0, 321.5, 1015.5, 321.5 ],
					"source" : [ "obj-37", 3 ]
				}

			}
, 			{
				"patchline" : 				{
					"destination" : [ "obj-41", 0 ],
					"midpoints" : [ 1089.0, 462.5, 1015.5, 462.5 ],
					"source" : [ "obj-37", 7 ]
				}

			}
, 			{
				"patchline" : 				{
					"destination" : [ "obj-42", 0 ],
					"midpoints" : [ 1078.5, 427.0, 1015.5, 427.0 ],
					"source" : [ "obj-37", 6 ]
				}

			}
, 			{
				"patchline" : 				{
					"destination" : [ "obj-43", 0 ],
					"midpoints" : [ 1068.0, 392.0, 1015.5, 392.0 ],
					"source" : [ "obj-37", 5 ]
				}

			}
, 			{
				"patchline" : 				{
					"destination" : [ "obj-44", 0 ],
					"midpoints" : [ 1057.5, 356.5, 1015.5, 356.5 ],
					"source" : [ "obj-37", 4 ]
				}

			}
, 			{
				"patchline" : 				{
					"destination" : [ "obj-46", 0 ],
					"midpoints" : [ 733.5, 588.5, 733.5, 588.5 ],
					"source" : [ "obj-45", 0 ]
				}

			}
, 			{
				"patchline" : 				{
					"destination" : [ "obj-10", 3 ],
					"midpoints" : [ 733.5, 637.0, 712.5, 637.0 ],
					"source" : [ "obj-46", 0 ]
				}

			}
, 			{
				"patchline" : 				{
					"destination" : [ "obj-35", 1 ],
					"midpoints" : [ 840.5, 659.5, 644.500000000000114, 659.5 ],
					"source" : [ "obj-48", 0 ]
				}

			}
, 			{
				"patchline" : 				{
					"destination" : [ "obj-20", 0 ],
					"midpoints" : [ 76.5, 391.5, 76.5, 391.5 ],
					"source" : [ "obj-5", 0 ]
				}

			}
, 			{
				"patchline" : 				{
					"destination" : [ "obj-30", 0 ],
					"midpoints" : [ 183.0, 391.5, 183.0, 391.5 ],
					"source" : [ "obj-5", 1 ]
				}

			}
, 			{
				"patchline" : 				{
					"destination" : [ "obj-22", 0 ],
					"midpoints" : [ 581.5, 406.0, 581.5, 406.0 ],
					"source" : [ "obj-6", 0 ]
				}

			}
, 			{
				"patchline" : 				{
					"destination" : [ "obj-107", 0 ],
					"midpoints" : [ 888.5, 263.5, 888.5, 263.5 ],
					"source" : [ "obj-7", 0 ]
				}

			}
, 			{
				"patchline" : 				{
					"destination" : [ "obj-71", 0 ],
					"midpoints" : [ 1318.5, 35.5, 1318.5, 35.5 ],
					"source" : [ "obj-70", 0 ]
				}

			}
, 			{
				"patchline" : 				{
					"destination" : [ "obj-73", 0 ],
					"midpoints" : [ 1318.5, 68.0, 1318.5, 68.0 ],
					"source" : [ "obj-71", 0 ]
				}

			}
, 			{
				"patchline" : 				{
					"destination" : [ "obj-10", 2 ],
					"midpoints" : [ 658.833333333333371, 620.0, 658.833333333333371, 620.0 ],
					"source" : [ "obj-8", 2 ]
				}

			}
, 			{
				"patchline" : 				{
					"destination" : [ "obj-10", 1 ],
					"midpoints" : [ 605.166666666666742, 620.0, 605.166666666666742, 620.0 ],
					"source" : [ "obj-8", 1 ]
				}

			}
, 			{
				"patchline" : 				{
					"destination" : [ "obj-10", 0 ],
					"midpoints" : [ 551.5, 620.0, 551.500000000000114, 620.0 ],
					"source" : [ "obj-8", 0 ]
				}

			}
, 			{
				"patchline" : 				{
					"destination" : [ "obj-2", 0 ],
					"midpoints" : [ 22.5, 57.0, 22.5, 57.0 ],
					"source" : [ "obj-86", 0 ]
				}

			}
, 			{
				"patchline" : 				{
					"destination" : [ "obj-1", 0 ],
					"midpoints" : [ 54.5, 39.25, 54.5, 39.25 ],
					"source" : [ "obj-89", 0 ]
				}

			}
, 			{
				"patchline" : 				{
					"destination" : [ "obj-3", 0 ],
					"midpoints" : [ 581.5, 229.0, 581.5, 229.0 ],
					"source" : [ "obj-9", 0 ]
				}

			}
 ],
		"dependency_cache" : [ 			{
				"name" : "ui.json",
				"bootpath" : "~/Documents/Max 8/Devices/max_standalone",
				"patcherrelativepath" : "../../../../../../Documents/Max 8/Devices/max_standalone",
				"type" : "JSON",
				"implicit" : 1
			}
, 			{
				"name" : "vo.scale.js",
				"bootpath" : "~/Documents/Max 8/Devices/max_standalone/vo",
				"patcherrelativepath" : "../../../../../../Documents/Max 8/Devices/max_standalone/vo",
				"type" : "TEXT",
				"implicit" : 1
			}
 ],
		"autosave" : 0,
		"toolbaradditions" : [ "lessonbrowser" ]
	}

}
